<svg xmlns="http://www.w3.org/2000/svg" width="1280" height="360" viewBox="0 0 1280 360" role="img" aria-labelledby="title desc">
  <title id="title">Eduardo Spiess — Fullstack e LLM Engineer</title>
  <desc id="desc">Banner escuro com identidade VEX, nome de Eduardo Spiess e especialidades em software, RAG e agentes de IA.</desc>
  <defs>
    <linearGradient id="surface" x1="0" y1="0" x2="1" y2="1">
      <stop offset="0" stop-color="#09090b"/>
      <stop offset="1" stop-color="#15161b"/>
    </linearGradient>
    <linearGradient id="signal" x1="0" y1="0" x2="1" y2="0">
      <stop offset="0" stop-color="#ef3d55"/>
      <stop offset="1" stop-color="#ff7185"/>
    </linearGradient>
    <filter id="shadow" x="-20%" y="-20%" width="140%" height="140%">
      <feDropShadow dx="0" dy="12" stdDeviation="18" flood-color="#000" flood-opacity=".42"/>
    </filter>
  </defs>

  <rect width="1280" height="360" rx="28" fill="url(#surface)"/>
  <path d="M0 44H760M0 316H980M1020 0V360M1082 0V360" stroke="#24262e" stroke-width="1"/>
  <path d="M70 0V360M0 104H1280" stroke="#1c1e24" stroke-width="1"/>
  <path d="M0 359H1280" stroke="#ef3d55" stroke-width="2"/>

  <g opacity=".7">
    <circle cx="1020" cy="104" r="4" fill="#ef3d55"/>
    <circle cx="1082" cy="104" r="4" fill="#7dd3fc"/>
    <path d="M1020 104L1144 228L1214 158" fill="none" stroke="#2f323b" stroke-width="2"/>
    <path d="M1082 104L1214 236" fill="none" stroke="#ef3d55" stroke-opacity=".4"/>
  </g>

  <g filter="url(#shadow)">
    <rect x="70" y="58" width="214" height="34" rx="17" fill="#191a20" stroke="#30323b"/>
    <circle cx="90" cy="75" r="5" fill="#ef3d55"/>
    <text x="105" y="81" fill="#d8dae2" font-family="Arial, Helvetica, sans-serif" font-size="14" font-weight="700" letter-spacing="1.8">TIMBÓ · SC · BRASIL</text>

    <text x="70" y="169" fill="#f5f5f4" font-family="Arial, Helvetica, sans-serif" font-size="56" font-weight="800" letter-spacing="-1.8">Eduardo Spiess</text>
    <text x="72" y="214" fill="#ef3d55" font-family="Arial, Helvetica, sans-serif" font-size="25" font-weight="700">Fullstack &amp; LLM Engineer</text>
    <text x="72" y="254" fill="#b5b7c0" font-family="Arial, Helvetica, sans-serif" font-size="18">Software que conecta produto, dados e inteligência artificial.</text>

    <g transform="translate(1030 255) scale(.54)">
      <g transform="skewX(-8) translate(14 0)">
        <polygon fill="#fff" points="0,0 35,0 63,62 91,0 126,0 77,96 49,96"/>
        <path fill="#ef3d55" d="M142 0h94v26h-64v9h52v26h-52v9h64v26h-94z"/>
        <polygon fill="#fff" points="256,0 291,0 316,33 341,0 376,0 334,48 376,96 341,96 316,63 291,96 256,96 298,48"/>
      </g>
    </g>
    <text x="1040" y="329" fill="#8d9099" font-family="Arial, Helvetica, sans-serif" font-size="11" font-weight="700" letter-spacing="2.2">FOUNDER</text>
  </g>
</svg>
